<svg width="24" height="24" viewBox="0 0 24 24" fill="none" xmlns="http://www.w3.org/2000/svg">
<path d="M15.9959 20.9945V18.9951C15.9959 17.9345 15.5746 16.9173 14.8246 16.1674C14.0747 15.4174 13.0575 14.9961 11.9969 14.9961H5.99848C4.93789 14.9961 3.92074 15.4174 3.17078 16.1674C2.42083 16.9173 1.99951 17.9345 1.99951 18.9951V20.9945" stroke="#ffffff" stroke-width="1.99948" stroke-linecap="round" stroke-linejoin="round"/>
<path d="M8.99769 10.9972C11.2063 10.9972 12.9967 9.20681 12.9967 6.99824C12.9967 4.78967 11.2063 2.99927 8.99769 2.99927C6.78912 2.99927 4.99872 4.78967 4.99872 6.99824C4.99872 9.20681 6.78912 10.9972 8.99769 10.9972Z" stroke="#ffffff" stroke-width="1.99948" stroke-linecap="round" stroke-linejoin="round"/>
<path d="M18.9951 7.99792V13.9964" stroke="#ffffff" stroke-width="1.99948" stroke-linecap="round" stroke-linejoin="round"/>
<path d="M21.9943 10.9972H15.9958" stroke="#ffffff" stroke-width="1.99948" stroke-linecap="round" stroke-linejoin="round"/>
</svg>
