<svg width="20" height="20" viewBox="0 0 20 20" fill="none" xmlns="http://www.w3.org/2000/svg">
<g clip-path="url(#clip0_1_556)">
<path d="M12.0763 3.33142H7.91201L5.82989 5.82997H3.33135C2.88958 5.82997 2.4659 6.00546 2.15352 6.31784C1.84114 6.63022 1.66565 7.05389 1.66565 7.49566V14.9913C1.66565 15.4331 1.84114 15.8567 2.15352 16.1691C2.4659 16.4815 2.88958 16.657 3.33135 16.657H16.6569C17.0987 16.657 17.5224 16.4815 17.8347 16.1691C18.1471 15.8567 18.3226 15.4331 18.3226 14.9913V7.49566C18.3226 7.05389 18.1471 6.63022 17.8347 6.31784C17.5224 6.00546 17.0987 5.82997 16.6569 5.82997H14.1584L12.0763 3.33142Z" stroke="white" stroke-width="1.6657" stroke-linecap="round" stroke-linejoin="round"/>
<path d="M9.99415 13.3256C11.3741 13.3256 12.4927 12.2069 12.4927 10.827C12.4927 9.44713 11.3741 8.32849 9.99415 8.32849C8.61424 8.32849 7.49561 9.44713 7.49561 10.827C7.49561 12.2069 8.61424 13.3256 9.99415 13.3256Z" stroke="white" stroke-width="1.6657" stroke-linecap="round" stroke-linejoin="round"/>
</g>
<defs>
<clipPath id="clip0_1_556">
<rect width="19.9884" height="19.9884" fill="white"/>
</clipPath>
</defs>
</svg>
