<svg width="24" height="24" viewBox="0 0 24 24" fill="none" xmlns="http://www.w3.org/2000/svg">
<path d="M15.9959 20.9945V18.9951C15.9959 17.9345 15.5746 16.9173 14.8246 16.1674C14.0747 15.4174 13.0575 14.9961 11.9969 14.9961H5.99845C4.93786 14.9961 3.9207 15.4174 3.17075 16.1674C2.4208 16.9173 1.99948 17.9345 1.99948 18.9951V20.9945" stroke="white" stroke-opacity="0.6" stroke-width="1.99948" stroke-linecap="round" stroke-linejoin="round"/>
<path d="M8.99768 10.9972C11.2062 10.9972 12.9966 9.20681 12.9966 6.99824C12.9966 4.78967 11.2062 2.99927 8.99768 2.99927C6.78911 2.99927 4.99871 4.78967 4.99871 6.99824C4.99871 9.20681 6.78911 10.9972 8.99768 10.9972Z" stroke="white" stroke-opacity="0.6" stroke-width="1.99948" stroke-linecap="round" stroke-linejoin="round"/>
<path d="M21.9943 20.9946V18.9951C21.9937 18.1091 21.6988 17.2483 21.1559 16.548C20.6131 15.8478 19.853 15.3476 18.9951 15.1261" stroke="white" stroke-opacity="0.6" stroke-width="1.99948" stroke-linecap="round" stroke-linejoin="round"/>
<path d="M15.9959 3.12915C16.8561 3.34939 17.6185 3.84967 18.163 4.55109C18.7074 5.25252 19.0029 6.11521 19.0029 7.00315C19.0029 7.89109 18.7074 8.75378 18.163 9.45521C17.6185 10.1566 16.8561 10.6569 15.9959 10.8772" stroke="white" stroke-opacity="0.6" stroke-width="1.99948" stroke-linecap="round" stroke-linejoin="round"/>
</svg>
