<svg width="31" height="31" viewBox="0 0 31 31" fill="none" xmlns="http://www.w3.org/2000/svg">
<path d="M19.2495 26.9492V16.6828C19.2495 16.3425 19.1143 16.0161 18.8736 15.7754C18.633 15.5347 18.3065 15.3995 17.9662 15.3995H12.833C12.4926 15.3995 12.1662 15.5347 11.9256 15.7754C11.6849 16.0161 11.5497 16.3425 11.5497 16.6828V26.9492" stroke="white" stroke-width="3.20825" stroke-linecap="round" stroke-linejoin="round"/>
<path d="M3.8499 12.833C3.84981 12.4596 3.93118 12.0908 4.08832 11.7521C4.24547 11.4134 4.47461 11.1131 4.75976 10.8721L13.7429 3.17359C14.2061 2.78207 14.7931 2.56726 15.3996 2.56726C16.0061 2.56726 16.5931 2.78207 17.0563 3.17359L26.0394 10.8721C26.3246 11.1131 26.5537 11.4134 26.7109 11.7521C26.868 12.0908 26.9494 12.4596 26.9493 12.833V24.3827C26.9493 25.0634 26.6789 25.7162 26.1976 26.1975C25.7162 26.6789 25.0634 26.9493 24.3827 26.9493H6.4165C5.73579 26.9493 5.08297 26.6789 4.60164 26.1975C4.12031 25.7162 3.8499 25.0634 3.8499 24.3827V12.833Z" stroke="white" stroke-width="3.20825" stroke-linecap="round" stroke-linejoin="round"/>
</svg>
