<svg width="28" height="28" viewBox="0 0 28 28" fill="none" xmlns="http://www.w3.org/2000/svg">
<path d="M17.4998 24.4995V15.1662C17.4998 14.8568 17.3768 14.56 17.158 14.3412C16.9393 14.1224 16.6425 13.9995 16.3331 13.9995H11.6664C11.357 13.9995 11.0603 14.1224 10.8415 14.3412C10.6227 14.56 10.4998 14.8568 10.4998 15.1662V24.4995" stroke="white" stroke-opacity="0.6" stroke-width="2.33327" stroke-linecap="round" stroke-linejoin="round"/>
<path d="M3.5 11.6667C3.49992 11.3273 3.57389 10.9919 3.71675 10.684C3.85962 10.3762 4.06793 10.1031 4.32717 9.88404L12.4938 2.88521C12.915 2.52927 13.4486 2.33398 14 2.33398C14.5514 2.33398 15.085 2.52927 15.5062 2.88521L23.6728 9.88404C23.9321 10.1031 24.1404 10.3762 24.2832 10.684C24.4261 10.9919 24.5001 11.3273 24.5 11.6667V22.1667C24.5 22.7855 24.2542 23.379 23.8166 23.8166C23.379 24.2542 22.7855 24.5 22.1667 24.5H5.83333C5.21449 24.5 4.621 24.2542 4.18342 23.8166C3.74583 23.379 3.5 22.7855 3.5 22.1667V11.6667Z" stroke="white" stroke-opacity="0.6" stroke-width="2.33327" stroke-linecap="round" stroke-linejoin="round"/>
</svg>
