<svg width="16" height="16" viewBox="0 0 16 16" fill="none" xmlns="http://www.w3.org/2000/svg">
<g clip-path="url(#clip0_1_596)">
<path d="M11.3212 1.33191H4.66168C2.8227 1.33191 1.33191 2.8227 1.33191 4.66168V11.3212C1.33191 13.1602 2.8227 14.651 4.66168 14.651H11.3212C13.1602 14.651 14.651 13.1602 14.651 11.3212V4.66168C14.651 2.8227 13.1602 1.33191 11.3212 1.33191Z" stroke="#0A1628" stroke-width="1.33191" stroke-linecap="round" stroke-linejoin="round"/>
<path d="M10.6553 7.57191C10.7375 8.12615 10.6428 8.69219 10.3847 9.18953C10.1267 9.68686 9.71837 10.0902 9.21789 10.3421C8.71742 10.594 8.15025 10.6817 7.59707 10.5926C7.04388 10.5036 6.53285 10.2424 6.13666 9.84625C5.74047 9.45006 5.47929 8.93903 5.39028 8.38585C5.30127 7.83267 5.38895 7.2655 5.64085 6.76502C5.89276 6.26455 6.29606 5.85624 6.79339 5.59818C7.29073 5.34013 7.85677 5.24546 8.41101 5.32764C8.97635 5.41148 9.49974 5.67492 9.90387 6.07905C10.308 6.48318 10.5714 7.00657 10.6553 7.57191Z" stroke="#0A1628" stroke-width="1.33191" stroke-linecap="round" stroke-linejoin="round"/>
<path d="M11.6542 4.32874H11.6608" stroke="#0A1628" stroke-width="1.33191" stroke-linecap="round" stroke-linejoin="round"/>
</g>
<defs>
<clipPath id="clip0_1_596">
<rect width="15.9829" height="15.9829" fill="white"/>
</clipPath>
</defs>
</svg>
