<svg width="80" height="80" viewBox="0 0 80 80" fill="none" xmlns="http://www.w3.org/2000/svg">
<path d="M59.0211 7.99924H20.7371C13.6892 7.99924 7.97581 13.7294 7.97581 20.798V59.1943C7.97581 66.2629 13.6892 71.9931 20.7371 71.9931H59.0211C66.0689 71.9931 71.7824 66.2629 71.7824 59.1943V20.798C71.7824 13.7294 66.0689 7.99924 59.0211 7.99924Z" fill="#0052FF"/>
<path d="M23.9275 23.9977V55.9946M23.9275 39.9962H55.8307M55.8307 23.9977V55.9946" stroke="white" stroke-width="6.39939" stroke-linecap="round" stroke-linejoin="round"/>
<path d="M50.2477 38.3963H29.5105C28.6296 38.3963 27.9154 39.1126 27.9154 39.9962C27.9154 40.8798 28.6296 41.596 29.5105 41.596H50.2477C51.1287 41.596 51.8428 40.8798 51.8428 39.9962C51.8428 39.1126 51.1287 38.3963 50.2477 38.3963Z" fill="#00FFB3"/>
</svg>
