<svg width="15" height="15" viewBox="0 0 15 15" fill="none" xmlns="http://www.w3.org/2000/svg">
<g clip-path="url(#clip0_80_208)">
<path d="M6.70425 3.1707C8.15928 2.9973 9.63107 3.30488 10.8949 4.04647C12.1587 4.78806 13.145 5.92291 13.7033 7.2777C13.7554 7.41794 13.7554 7.57221 13.7033 7.71245C13.4738 8.269 13.1704 8.79214 12.8014 9.2678" stroke="#0A1628" stroke-width="1.24928" stroke-linecap="round" stroke-linejoin="round"/>
<path d="M8.79742 8.84369C8.444 9.18504 7.97064 9.37392 7.47931 9.36965C6.98797 9.36538 6.51797 9.1683 6.17053 8.82086C5.82309 8.47342 5.62601 8.00342 5.62174 7.51209C5.61747 7.02075 5.80636 6.54739 6.1477 6.19397" stroke="#0A1628" stroke-width="1.24928" stroke-linecap="round" stroke-linejoin="round"/>
<path d="M10.9181 10.9306C10.0895 11.4214 9.165 11.7283 8.20736 11.8303C7.24973 11.9324 6.28134 11.8272 5.36792 11.522C4.4545 11.2169 3.61741 10.7188 2.91345 10.0616C2.20949 9.40434 1.65514 8.6034 1.28801 7.71307C1.23595 7.57282 1.23595 7.41856 1.28801 7.27832C1.84183 5.93525 2.81629 4.80802 4.06515 4.0658" stroke="#0A1628" stroke-width="1.24928" stroke-linecap="round" stroke-linejoin="round"/>
<path d="M1.24928 1.24927L13.7421 13.7421" stroke="#0A1628" stroke-width="1.24928" stroke-linecap="round" stroke-linejoin="round"/>
</g>
<defs>
<clipPath id="clip0_80_208">
<rect width="14.9913" height="14.9913" fill="white"/>
</clipPath>
</defs>
</svg>
