<svg width="16" height="16" viewBox="0 0 16 16" fill="none" xmlns="http://www.w3.org/2000/svg">
<g clip-path="url(#clip0_1_590)">
<path d="M14.651 11.268V13.2659C14.6517 13.4514 14.6137 13.6349 14.5394 13.8049C14.4651 13.9748 14.3561 14.1274 14.2195 14.2527C14.0828 14.3781 13.9215 14.4736 13.7458 14.533C13.5701 14.5924 13.3839 14.6145 13.1992 14.5978C11.1499 14.3751 9.18147 13.6749 7.45199 12.5533C5.84293 11.5308 4.47872 10.1666 3.45626 8.55758C2.33078 6.82024 1.63037 4.84222 1.41178 2.78376C1.39514 2.5996 1.41702 2.41399 1.47604 2.23875C1.53506 2.06352 1.62992 1.90249 1.75459 1.76592C1.87925 1.62936 2.03099 1.52025 2.20013 1.44553C2.36927 1.37082 2.55212 1.33215 2.73703 1.33197H4.73489C5.05808 1.32879 5.37141 1.44324 5.61646 1.65398C5.86151 1.86473 6.02157 2.15739 6.0668 2.47742C6.15113 3.11678 6.30751 3.74455 6.53297 4.34875C6.62257 4.58711 6.64196 4.84616 6.58885 5.0952C6.53573 5.34425 6.41234 5.57285 6.23329 5.75391L5.38753 6.59968C6.33555 8.26692 7.71601 9.64738 9.38326 10.5954L10.229 9.74964C10.4101 9.57059 10.6387 9.4472 10.8877 9.39408C11.1368 9.34097 11.3958 9.36036 11.6342 9.44996C12.2384 9.67542 12.8662 9.83181 13.5055 9.91613C13.829 9.96177 14.1245 10.1247 14.3357 10.374C14.5468 10.6232 14.6591 10.9414 14.651 11.268Z" stroke="#0A1628" stroke-width="1.33191" stroke-linecap="round" stroke-linejoin="round"/>
</g>
<defs>
<clipPath id="clip0_1_590">
<rect width="15.9829" height="15.9829" fill="white"/>
</clipPath>
</defs>
</svg>
