<svg width="15" height="15" viewBox="0 0 15 15" fill="none" xmlns="http://www.w3.org/2000/svg">
<g clip-path="url(#clip0_1_1180)">
<path d="M6.70422 3.1707C8.15924 2.9973 9.63103 3.30488 10.8948 4.04647C12.1586 4.78806 13.145 5.92289 13.7033 7.27768C13.7553 7.41792 13.7553 7.57219 13.7033 7.71243C13.4737 8.26898 13.1703 8.79212 12.8013 9.26777" stroke="#0A1628" stroke-width="1.24927" stroke-linecap="round" stroke-linejoin="round"/>
<path d="M8.79738 8.84356C8.44396 9.1849 7.9706 9.37378 7.47927 9.36951C6.98794 9.36524 6.51794 9.16817 6.1705 8.82073C5.82306 8.47329 5.62598 8.00329 5.62171 7.51196C5.61744 7.02062 5.80632 6.54727 6.14767 6.19385" stroke="#0A1628" stroke-width="1.24927" stroke-linecap="round" stroke-linejoin="round"/>
<path d="M10.918 10.9304C10.0894 11.4213 9.16496 11.7281 8.20733 11.8302C7.2497 11.9322 6.28132 11.8271 5.3679 11.5219C4.45448 11.2167 3.6174 10.7186 2.91344 10.0614C2.20949 9.4042 1.65514 8.60325 1.28801 7.71293C1.23595 7.57269 1.23595 7.41842 1.28801 7.27818C1.84183 5.93512 2.81629 4.8079 4.06514 4.06567" stroke="#0A1628" stroke-width="1.24927" stroke-linecap="round" stroke-linejoin="round"/>
<path d="M1.24927 1.24927L13.742 13.742" stroke="#0A1628" stroke-width="1.24927" stroke-linecap="round" stroke-linejoin="round"/>
</g>
<defs>
<clipPath id="clip0_1_1180">
<rect width="14.9913" height="14.9913" fill="white"/>
</clipPath>
</defs>
</svg>
