<svg width="15" height="15" viewBox="0 0 15 15" fill="none" xmlns="http://www.w3.org/2000/svg">
<g clip-path="url(#clip0_80_283)">
<path d="M1.28801 7.713C1.23595 7.57276 1.23595 7.41849 1.28801 7.27825C1.79503 6.04887 2.65566 4.99772 3.76081 4.25806C4.86596 3.5184 6.16584 3.12354 7.49567 3.12354C8.8255 3.12354 10.1254 3.5184 11.2305 4.25806C12.3357 4.99772 13.1963 6.04887 13.7033 7.27825C13.7554 7.41849 13.7554 7.57276 13.7033 7.713C13.1963 8.94238 12.3357 9.99353 11.2305 10.7332C10.1254 11.4729 8.8255 11.8677 7.49567 11.8677C6.16584 11.8677 4.86596 11.4729 3.76081 10.7332C2.65566 9.99353 1.79503 8.94238 1.28801 7.713Z" stroke="#0A1628" stroke-width="1.24928" stroke-linecap="round" stroke-linejoin="round"/>
<path d="M7.49567 9.36954C8.5306 9.36954 9.36959 8.53056 9.36959 7.49562C9.36959 6.46069 8.5306 5.6217 7.49567 5.6217C6.46073 5.6217 5.62175 6.46069 5.62175 7.49562C5.62175 8.53056 6.46073 9.36954 7.49567 9.36954Z" stroke="#0A1628" stroke-width="1.24928" stroke-linecap="round" stroke-linejoin="round"/>
</g>
<defs>
<clipPath id="clip0_80_283">
<rect width="14.9913" height="14.9913" fill="white"/>
</clipPath>
</defs>
</svg>
